:FULLY-SPECIFIED
:FORCE-ALL-JOINTS-BE-3DOF
:DEGREES
356
root 9.27791 17.0836 14.209 6.59196 8.47075 -2.07032
lfemur -16.6277 7.70896 -14.6002
ltibia 64.1345 0 0
lfoot -4.75375 11.6004 0
ltoes -3.86544 0 0
rfemur -22.8201 4.0701 26.7995
rtibia 32.6828 0 0
rfoot -14.6737 1.56094 0
rtoes -10.807 0 0
lowerback -6.25891 -2.11943 -0.989773
upperback -1.39872 -2.82625 2.84702
thorax 2.25612 -1.42159 3.26033
lowerneck -19.56 -6.03127 -13.3724
upperneck 20.4794 -7.86942 14.0801
head 10.9814 -3.05623 6.17434
lclavicle -2.09061e-15 -1.01638e-14 0
lhumerus -37.9251 -20.9788 99.4373
lradius 25.2723 0 0
lwrist 6.72519 0 0
lhand -10.4203 -20.2559 0
lfingers 7.12502 0 0
lthumb 15.5783 9.12675 0
rclavicle -2.09061e-15 -1.01638e-14 0
rhumerus -41.4937 12.8672 -84.8607
rradius 39.4156 0 0
rwrist -23.0681 0 0
rhand -30.7825 -29.1868 0
rfingers 7.12502 0 0
rthumb -4.0731 -59.1275 0
357
root 9.27813 17.0912 14.4032 6.56493 8.07339 -2.14942
lfemur -18.8701 7.51738 -15.077
ltibia 64.3966 0 0
lfoot -6.14131 11.4748 0
ltoes -3.82547 0 0
rfemur -21.8255 4.41058 27.0368
rtibia 32.2773 0 0
rfoot -15.1924 1.60427 0
rtoes -11.4267 0 0
lowerback -6.19057 -1.87362 -0.866903
upperback -1.2929 -2.50751 2.8202
thorax 2.30014 -1.26295 3.19048
lowerneck -19.7489 -6.0723 -13.3539
upperneck 20.5788 -7.89922 14.0007
head 11.0546 -3.06956 6.13854
lclavicle 3.53393e-16 -5.72796e-15 0
lhumerus -39.061 -21.2862 99.5045
lradius 25.9367 0 0
lwrist 7.86047 0 0
lhand -11.6937 -20.809 0
lfingers 7.12502 0 0
lthumb 14.351 8.65644 0
rclavicle 3.53393e-16 -5.72796e-15 0
rhumerus -40.5967 13.7495 -84.9123
rradius 39.9966 0 0
rwrist -23.0931 0 0
rhand -30.6239 -28.2603 0
rfingers 7.12502 0 0
rthumb -3.91996 -58.2037 0
358
root 9.27851 17.0957 14.5954 6.5271 7.66604 -2.2249
lfemur -21.096 7.29606 -15.5564
ltibia 64.5338 0 0
lfoot -7.45596 11.3074 0
ltoes -3.82968 0 0
rfemur -20.8528 4.76696 27.2673
rtibia 31.9191 0 0
rfoot -15.7294 1.64725 0
rtoes -11.9718 0 0
lowerback -6.10505 -1.62819 -0.755364
upperback -1.17695 -2.18893 2.79801
thorax 2.34679 -1.10461 3.1322
lowerneck -19.9669 -6.11506 -13.3379
upperneck 20.6864 -7.9275 13.9196
head 11.1361 -3.08149 6.10298
lclavicle 3.82272e-15 9.93875e-17 0
lhumerus -40.1864 -21.6081 99.5922
lradius 26.6077 0 0
lwrist 9.04367 0 0
lhand -13.1203 -21.3931 0
lfingers 7.12502 0 0
lthumb 12.9761 8.16496 0
rclavicle 3.82272e-15 9.93875e-17 0
rhumerus -39.6614 14.6394 -84.941
rradius 40.5542 0 0
rwrist -23.0956 0 0
rhand -30.4168 -27.2098 0
rfingers 7.12502 0 0
rthumb -3.71996 -57.1568 0
359
root 9.27877 17.098 14.7466 6.4903 7.3391 -2.28268
lfemur -22.8605 7.10198 -15.9417
ltibia 64.6002 0 0
lfoot -8.45663 11.1392 0
ltoes -3.84057 0 0
rfemur -20.0904 5.06187 27.4464
rtibia 31.6556 0 0
rfoot -16.1661 1.68042 0
rtoes -12.3656 0 0
lowerback -6.02575 -1.43249 -0.672161
upperback -1.07624 -1.93482 2.78294
thorax 2.38716 -0.978463 3.09194
lowerneck -20.1727 -6.15297 -13.323
upperneck 20.7829 -7.95117 13.8472
head 11.2109 -3.09099 6.07132
lclavicle 7.26806e-15 6.03717e-15 0
lhumerus -41.08 -21.906 99.6901
lradius 27.1538 0 0
lwrist 10.0356 0 0
lhand -14.4006 -21.8939 0
lfingers 7.12502 0 0
lthumb 11.7421 7.74697 0
rclavicle 7.26806e-15 6.03717e-15 0
rhumerus -38.8917 15.3606 -84.9532
rradius 40.9844 0 0
rwrist -23.0869 0 0
rhand -30.2183 -26.2598 0
rfingers 7.12502 0 0
rthumb -3.52827 -56.2102 0
360
root 9.27864 17.0991 14.818 6.46632 7.18296 -2.30868
lfemur -23.7184 6.99213 -16.1364
ltibia 64.6501 0 0
lfoot -8.90224 11.0113 0
ltoes -3.82062 0 0
rfemur -19.7267 5.2179 27.5298
rtibia 31.5344 0 0
rfoot -16.384 1.69433 0
rtoes -12.5317 0 0
lowerback -5.97606 -1.33586 -0.634296
upperback -1.01615 -1.80944 2.77745
thorax 2.41235 -0.916411 3.07618
lowerneck -20.3254 -6.17942 -13.308
upperneck 20.8487 -7.96714 13.7935
head 11.2638 -3.09703 6.0472
lclavicle 9.64011e-15 1.08043e-14 0
lhumerus -41.5207 -22.1411 99.7883
lradius 27.4435 0 0
lwrist 10.5971 0 0
lhand -15.2353 -22.1975 0
lfingers 7.12502 0 0
lthumb 10.9377 7.4971 0
rclavicle 9.64011e-15 1.08043e-14 0
rhumerus -38.4916 15.7365 -84.9551
rradius 41.1832 0 0
rwrist -23.0782 0 0
rhand -30.0855 -25.6347 0
rfingers 7.12502 0 0
rthumb -3.40004 -55.5874 0
361
root 9.27785 17.0998 14.7709 6.46698 7.28803 -2.28882
lfemur -23.2249 7.02348 -16.0439
ltibia 64.7377 0 0
lfoot -8.55172 10.9646 0
ltoes -3.7323 0 0
rfemur -19.9499 5.15766 27.4728
rtibia 31.6029 0 0
rfoot -16.2646 1.6795 0
rtoes -12.3935 0 0
lowerback -5.97938 -1.38764 -0.658774
upperback -1.02203 -1.87708 2.78402
thorax 2.41345 -0.950348 3.09138
lowerneck -20.3838 -6.18781 -13.2916
upperneck 20.8645 -7.97231 13.769
head 11.2798 -3.0986 6.03427
lclavicle 9.88954e-15 1.31198e-14 0
lhumerus -41.2872 -22.2749 99.8767
lradius 27.3454 0 0
lwrist 10.4889 0 0
lhand -15.3249 -22.1896 0
lfingers 7.12502 0 0
lthumb 10.8513 7.51001 0
rclavicle 9.88954e-15 1.31198e-14 0
rhumerus -38.665 15.5906 -84.9531
rradius 41.0465 0 0
rwrist -23.0807 0 0
rhand -30.0756 -25.559 0
rfingers 7.12502 0 0
rthumb -3.39045 -55.5118 0
362
root 9.28045 17.096 14.9233 6.44675 6.93551 -2.35241
lfemur -24.8326 6.87285 -16.3552
ltibia 64.3522 0 0
lfoot -9.56635 11.0127 0
ltoes -3.95924 0 0
rfemur -19.2207 5.3779 27.6527
rtibia 31.3961 0 0
rfoot -16.6716 1.73651 0
rtoes -12.7507 0 0
lowerback -5.9401 -1.20994 -0.585174
upperback -0.976241 -1.64514 2.76962
thorax 2.42255 -0.834442 3.05423
lowerneck -20.3131 -6.17896 -13.3174
upperneck 20.8628 -7.96608 13.793
head 11.2668 -3.0977 6.04949
lclavicle 1.06889e-14 1.01877e-14 0
lhumerus -42.0543 -21.997 99.6882
lradius 27.6951 0 0
lwrist 10.9947 0 0
lhand -15.4987 -22.3376 0
lfingers 7.12502 0 0
lthumb 10.6839 7.37509 0
rclavicle 1.06889e-14 1.01877e-14 0
rhumerus -38.0205 16.1059 -84.932
rradius 41.464 0 0
rwrist -23.0587 0 0
rhand -30.0343 -25.4166 0
rfingers 7.12502 0 0
rthumb -3.35054 -55.3701 0
